<svg width="135" height="135" xmlns="http://www.w3.org/2000/svg" xmlns:xlink="http://www.w3.org/1999/xlink" xml:space="preserve" overflow="hidden"><g transform="translate(-795 -651)"><path d="M862.565 783.5C859.594 783.5 856.572 783.293 853.628 782.878 852.104 782.671 850.709 781.791 849.831 780.522 848.952 779.254 848.642 777.648 849.004 776.121 849.443 774.257 849.262 772.341 848.487 770.606 847.093 767.447 843.993 765.428 840.558 765.428 839.344 765.428 838.156 765.687 837.019 766.179 835.34 766.929 833.971 768.172 833.041 769.778 832.267 771.124 830.949 772.082 829.451 772.418 828.005 772.755 826.326 772.444 825.06 771.538 819.636 767.68 814.832 763.02 810.802 757.635 809.872 756.392 809.511 754.812 809.795 753.285 810.079 751.783 810.983 750.437 812.3 749.608 813.953 748.573 815.167 747.123 815.839 745.388 816.666 743.213 816.614 740.857 815.658 738.734 814.702 736.611 812.998 734.98 810.828 734.151 809.175 733.504 807.315 733.4 805.533 733.866 804.009 734.255 802.408 733.996 801.142 733.167 799.825 732.313 798.946 730.967 798.688 729.439 797.578 722.914 797.5 716.234 798.43 709.58 798.662 708.053 799.489 706.681 800.755 705.8 802.02 704.92 803.622 704.609 805.12 704.946 806.928 705.36 808.839 705.153 810.518 704.428 812.636 703.47 814.263 701.761 815.09 699.586 815.916 697.411 815.865 695.055 814.935 692.932 814.186 691.275 812.998 689.929 811.448 688.997 810.131 688.22 809.201 686.9 808.891 685.398 808.581 683.87 808.891 682.291 809.795 681.048 813.618 675.611 818.267 670.847 823.562 666.834 824.776 665.928 826.352 665.565 827.85 665.824 829.348 666.083 830.691 666.989 831.517 668.258 832.551 669.837 833.971 671.028 835.676 671.676 836.683 672.064 837.717 672.271 838.776 672.271 842.366 672.271 845.62 670.019 846.886 666.679 847.532 665.022 847.635 663.235 847.222 661.474 846.834 659.999 847.118 658.393 847.945 657.125 848.797 655.83 850.141 654.95 851.639 654.691 858.07 653.604 864.838 653.5 871.347 654.406 872.845 654.613 874.24 655.442 875.118 656.71 875.996 657.953 876.306 659.533 875.996 661.034 875.608 662.847 875.815 664.685 876.538 666.342 877.933 669.501 881.058 671.52 884.494 671.52 885.708 671.52 886.896 671.261 888.007 670.769 889.634 670.044 890.977 668.853 891.907 667.326 892.682 666.031 893.999 665.099 895.497 664.789 897.073 664.452 898.571 664.814 899.811 665.669 905.235 669.501 909.988 674.135 913.991 679.417 914.921 680.634 915.308 682.213 915.05 683.715 914.766 685.243 913.888 686.589 912.596 687.417 911.021 688.427 909.858 689.877 909.213 691.56 907.482 696.039 909.729 701.088 914.198 702.823 915.851 703.444 917.685 703.548 919.441 703.108 920.939 702.745 922.515 703.004 923.806 703.833 925.072 704.687 925.976 706.033 926.234 707.535 927.371 714.06 927.5 720.74 926.596 727.342 926.389 728.869 925.537 730.267 924.271 731.148 923.341 731.795 922.257 732.132 921.12 732.132L921.12 732.132C920.707 732.132 920.319 732.106 919.932 732.002 918.072 731.588 916.212 731.795 914.534 732.546 910.143 734.488 908.179 739.64 910.117 744.042 910.866 745.699 912.08 747.071 913.655 748.003 914.998 748.78 915.954 750.1 916.29 751.602 916.6 753.104 916.29 754.709 915.412 755.977 911.563 761.441 906.94 766.256 901.619 770.295 900.379 771.227 898.803 771.616 897.279 771.331 895.755 771.046 894.412 770.14 893.586 768.82 892.553 767.162 891.106 765.946 889.376 765.272 888.368 764.884 887.309 764.703 886.276 764.703 882.686 764.703 879.431 766.929 878.14 770.295 877.494 771.978 877.417 773.842 877.907 775.655 878.295 777.156 878.062 778.762 877.236 780.082 876.383 781.377 875.04 782.283 873.516 782.542 869.9 783.163 866.206 783.5 862.565 783.5ZM840.558 761.389C845.569 761.389 850.141 764.366 852.181 768.949 853.318 771.512 853.576 774.308 852.93 777.053 852.827 777.441 852.93 777.881 853.163 778.218 853.395 778.581 853.757 778.814 854.196 778.865 860.369 779.72 866.697 779.642 872.819 778.555 873.232 778.503 873.594 778.244 873.826 777.881 874.059 777.545 874.11 777.105 874.007 776.69 873.284 774.05 873.439 771.331 874.394 768.82 876.254 763.926 881.033 760.638 886.276 760.638 887.826 760.638 889.35 760.923 890.822 761.492 893.379 762.476 895.497 764.263 896.995 766.671 897.228 767.033 897.589 767.266 898.003 767.344 898.416 767.421 898.855 767.318 899.191 767.059 904.176 763.279 908.515 758.774 912.106 753.647 912.338 753.311 912.441 752.871 912.338 752.456 912.26 752.042 912.002 751.705 911.641 751.472 909.316 750.126 907.534 748.132 906.449 745.673 903.582 739.252 906.475 731.691 912.88 728.843 915.36 727.756 918.124 727.471 920.81 728.067 920.888 728.093 921.017 728.093 921.12 728.093L921.12 728.093C921.43 728.093 921.74 727.989 921.998 727.834 922.334 727.601 922.541 727.212 922.618 726.798 923.445 720.61 923.316 714.344 922.257 708.234 922.179 707.82 921.947 707.457 921.611 707.224 921.249 706.991 920.836 706.914 920.423 707.017 917.866 707.664 915.179 707.509 912.751 706.577 906.216 704.066 902.936 696.661 905.442 690.11 906.397 687.625 908.128 685.502 910.401 684.026 910.762 683.793 910.995 683.43 911.072 683.016 911.15 682.602 911.047 682.187 910.788 681.851 907.043 676.906 902.574 672.556 897.486 668.983 897.176 668.75 896.737 668.646 896.324 668.75 895.91 668.828 895.575 669.061 895.342 669.423 893.999 671.65 892.036 673.41 889.66 674.446 888.007 675.197 886.276 675.559 884.494 675.559 879.483 675.559 874.911 672.582 872.87 667.999 871.786 665.539 871.502 662.847 872.044 660.206 872.121 659.792 872.044 659.351 871.812 659.015 871.579 658.678 871.192 658.471 870.778 658.393 864.683 657.539 858.354 657.643 852.336 658.678 851.923 658.756 851.561 658.989 851.329 659.325 851.096 659.688 851.019 660.102 851.122 660.516 851.742 663.054 851.587 665.695 850.657 668.103 848.772 673.022 844.019 676.31 838.776 676.31 837.226 676.31 835.702 675.999 834.23 675.456 831.724 674.472 829.632 672.763 828.134 670.459 827.927 670.122 827.566 669.863 827.152 669.786 826.739 669.734 826.3 669.837 825.99 670.07 821.005 673.825 816.666 678.304 813.075 683.378 812.843 683.715 812.739 684.129 812.817 684.544 812.92 684.958 813.179 685.32 813.514 685.527 815.787 686.874 817.544 688.867 818.603 691.275 819.997 694.382 820.075 697.852 818.861 701.036 817.647 704.221 815.245 706.732 812.145 708.105 809.666 709.192 806.902 709.477 804.242 708.881 803.802 708.804 803.389 708.881 803.053 709.114 802.718 709.347 802.485 709.736 802.433 710.15 801.529 716.39 801.607 722.63 802.666 728.74 802.718 729.18 802.976 729.543 803.312 729.776 803.673 729.983 804.112 730.06 804.526 729.957 807.083 729.284 809.821 729.413 812.274 730.371 815.452 731.588 817.957 733.97 819.352 737.077 820.721 740.184 820.798 743.653 819.584 746.838 818.603 749.401 816.82 751.55 814.418 753.026 814.083 753.259 813.824 753.621 813.747 754.036 813.669 754.45 813.773 754.864 814.031 755.201 817.802 760.25 822.296 764.625 827.385 768.224 827.721 768.457 828.16 768.561 828.573 768.457 828.986 768.379 829.348 768.12 829.554 767.758 830.923 765.402 832.938 763.589 835.392 762.476 837.019 761.751 838.776 761.389 840.558 761.389ZM862.513 740.624C853.834 740.624 845.956 735.497 842.443 727.575 837.536 716.493 842.521 703.47 853.576 698.551 856.417 697.282 859.413 696.661 862.487 696.661 871.14 696.661 879.018 701.787 882.531 709.71 887.438 720.791 882.453 733.789 871.398 738.734 868.583 740.003 865.587 740.624 862.513 740.624ZM862.487 700.7C859.982 700.7 857.528 701.218 855.203 702.253 846.189 706.266 842.133 716.908 846.137 725.944 849.004 732.416 855.436 736.585 862.513 736.585 865.018 736.585 867.446 736.067 869.771 735.031 878.785 731.018 882.867 720.377 878.837 711.341 875.97 704.868 869.539 700.7 862.487 700.7Z" stroke="#0D0D0D" stroke-width="4.58333" stroke-miterlimit="8" fill="#0D0D0D" fill-rule="evenodd"/></g></svg>